<svg width="200" height="200" xmlns="http://www.w3.org/2000/svg" xmlns:xlink="http://www.w3.org/1999/xlink" xml:space="preserve" overflow="hidden"><g transform="translate(-778 -257)"><path d="M895.873 284.402 898.849 301.364 898.857 301.363C898.863 301.402 898.868 301.441 898.875 301.48 899.46 304.813 902.636 307.041 905.97 306.456 909.303 305.872 911.531 302.695 910.946 299.362 910.939 299.322 910.93 299.284 910.923 299.246L910.931 299.244 907.955 282.282 907.948 282.283C907.33 278.99 904.177 276.798 900.868 277.378 897.558 277.959 895.34 281.094 895.88 284.401L895.873 284.402Z" fill="#020000"/><path d="M976.15 330.302C975.565 326.969 972.389 324.741 969.055 325.326 969.016 325.333 968.978 325.342 968.939 325.349L968.937 325.341 951.975 328.317 951.977 328.324C948.684 328.942 946.491 332.095 947.072 335.404 947.653 338.714 950.787 340.932 954.094 340.392L954.095 340.399 971.057 337.423 971.056 337.414C971.095 337.408 971.134 337.404 971.173 337.397 974.507 336.812 976.735 333.636 976.15 330.302Z" fill="#020000"/><path d="M934.691 309.533C937.442 311.462 941.227 310.814 943.183 308.094L943.189 308.099 953.079 294 953.072 293.995C953.095 293.963 953.12 293.932 953.142 293.9 955.086 291.129 954.415 287.307 951.644 285.364 948.874 283.421 945.052 284.091 943.109 286.862 943.086 286.894 943.065 286.928 943.043 286.96L943.036 286.956 933.146 301.054 933.153 301.059C931.261 303.824 931.94 307.604 934.691 309.533Z" fill="#020000"/><path d="M857.861 310.839 857.857 310.845 871.956 320.735 871.961 320.728C871.993 320.751 872.023 320.775 872.056 320.798 874.827 322.741 878.648 322.071 880.592 319.3 882.535 316.53 881.865 312.708 879.094 310.764 879.061 310.742 879.028 310.721 878.995 310.699L879 310.692 864.901 300.802 864.897 300.808C862.132 298.917 858.352 299.596 856.423 302.347 854.493 305.097 855.141 308.883 857.861 310.839Z" fill="#020000"/><path d="M966.463 372.167C966.43 372.144 966.397 372.123 966.364 372.101L966.369 372.094 952.271 362.204 952.266 362.21C949.501 360.319 945.721 360.998 943.792 363.749 941.863 366.499 942.51 370.285 945.231 372.241L945.226 372.247 959.325 382.137 959.33 382.13C959.362 382.153 959.393 382.177 959.425 382.2 962.196 384.143 966.018 383.473 967.961 380.702 969.904 377.932 969.234 374.11 966.463 372.167Z" fill="#020000"/><path d="M932.058 361.56C938.362 355.271 941.6 346.109 939.944 336.672 937.249 321.313 922.613 311.046 907.254 313.742 897.458 315.46 889.736 322.037 886.125 330.56 878.358 326.143 869.375 323.62 859.801 323.62 837.856 323.62 819.01 336.876 810.826 355.817 792.584 359.679 778.894 375.872 778.894 395.265 778.894 417.535 796.948 435.589 819.218 435.589 819.731 435.589 820.241 435.578 820.749 435.56L906.061 435.56 906.061 435.505C928.754 434.993 946.993 416.439 946.993 393.623 946.993 380.754 941.189 369.244 932.058 361.56ZM908.951 323.412C918.969 321.654 928.516 328.351 930.274 338.369 931.485 345.269 928.684 351.944 923.551 356.006 918.468 353.508 912.806 352.009 906.82 351.767 903.62 345.804 899.318 340.521 894.187 336.188 896.254 328.749 902.385 324.564 908.951 323.412ZM906.061 422.146C906.061 422.146 903.001 422.217 902.231 422.129L819.147 422.129C819.131 422.129 819.115 422.13 819.099 422.13 819.081 422.13 819.063 422.129 819.045 422.129L818.806 422.129 818.806 422.126C803.58 421.969 792.408 410.703 792.408 395.439 792.408 380.078 803.737 368.749 819.099 368.749 819.268 368.749 819.437 368.752 819.606 368.755 820.623 364.333 823.475 359.06 825.786 355.307 825.779 355.306 825.772 355.305 825.765 355.304 828.163 351.417 830.064 349.081 833.574 346.19 833.596 346.172 833.617 346.155 833.638 346.138 833.824 345.985 834.012 345.834 834.201 345.685 834.297 345.609 834.393 345.532 834.49 345.457 834.575 345.391 834.661 345.326 834.746 345.261 841.708 339.921 850.416 336.745 859.867 336.745 878.351 336.745 893.998 348.884 899.275 365.624 901.332 365.176 903.467 364.937 905.658 364.937 907.709 364.937 909.712 365.145 911.646 365.539 911.646 365.538 911.646 365.536 911.645 365.535 912.362 365.682 913.068 365.856 913.764 366.053 913.809 366.066 913.854 366.078 913.898 366.091 914.061 366.138 914.224 366.187 914.385 366.236 914.47 366.262 914.555 366.288 914.639 366.315 914.75 366.35 914.861 366.386 914.971 366.422 915.095 366.463 915.219 366.504 915.342 366.546 915.384 366.56 915.425 366.575 915.466 366.59 927.115 370.646 934.352 380.6 934.352 393.631 934.352 409.965 922.343 421.93 906.061 422.146Z" fill="#020000"/></g></svg>