<svg width="200" height="200" xmlns="http://www.w3.org/2000/svg" xmlns:xlink="http://www.w3.org/1999/xlink" xml:space="preserve" overflow="hidden"><g transform="translate(-262 -29)"><path d="M297.031 209.37C293.773 209.37 291.123 206.741 291.123 203.508L291.123 189.141C291.123 174.79 295.464 160.974 303.676 149.187 311.696 137.677 322.831 128.855 335.876 123.677L338.023 122.825 336.202 121.403C325.938 113.392 320.051 101.421 320.051 88.5602 320.051 65.5219 338.923 46.7785 362.12 46.7785 385.316 46.7785 404.188 65.5221 404.188 88.5602 404.188 101.421 398.301 113.392 388.037 121.403L386.216 122.825 388.363 123.677C401.409 128.855 412.543 137.676 420.563 149.184 428.775 160.97 433.116 174.787 433.116 189.141L433.116 203.508C433.116 206.74 430.465 209.37 427.207 209.37L297.031 209.37 297.031 209.37ZM362.127 130.342C329.491 130.342 302.941 156.72 302.941 189.141L302.941 197.648 421.298 197.648 421.298 189.141C421.298 156.72 394.754 130.342 362.127 130.342L362.127 130.342ZM362.12 58.5009C345.439 58.5009 331.868 71.9859 331.868 88.5616 331.868 105.137 345.439 118.621 362.12 118.621 378.8 118.621 392.371 105.137 392.371 88.5616 392.371 71.9858 378.801 58.5009 362.12 58.5009L362.12 58.5009ZM268.103 187.818C264.846 187.818 262.195 185.188 262.195 181.956L262.195 170.843C262.195 149.76 273.838 130.673 292.581 121.03L294.119 120.238 292.953 118.96C287.109 112.558 283.891 104.316 283.891 95.7526 283.891 76.8732 299.191 61.4767 318.121 61.1534 318 61.3461 317.88 61.5393 317.761 61.7333 314.844 65.5479 312.586 69.761 311.041 74.2663 301.842 77.5128 295.708 86.064 295.708 95.7522 295.708 104.697 301.015 112.871 309.228 116.575L309.267 116.593 309.306 116.608C311.753 117.528 313.333 119.65 313.333 122.013 313.333 124.435 311.634 126.633 309.097 127.497L307.743 127.818C287.875 132.802 274.011 150.492 274.011 170.843L274.011 176.096 280.914 176.096C280.211 179.956 279.82 183.887 279.748 187.818L268.103 187.818 268.103 187.818ZM444.413 187.817C444.341 183.885 443.95 179.955 443.248 176.096L450.15 176.096 450.15 170.842C450.15 150.492 436.285 132.801 416.433 127.822L415.064 127.497C412.529 126.633 410.829 124.436 410.829 122.013 410.829 119.651 412.41 117.529 414.856 116.608L414.895 116.593 414.934 116.576C423.147 112.871 428.454 104.698 428.454 95.7526 428.454 86.0634 422.32 77.5124 413.119 74.2667 411.576 69.7604 409.317 65.5473 406.4 61.7319 406.281 61.5378 406.161 61.3452 406.04 61.1528 424.97 61.4761 440.271 76.873 440.271 95.753 440.271 104.318 437.053 112.56 431.209 118.961L430.042 120.239 431.582 121.031C450.324 130.673 461.967 149.76 461.965 170.843L461.965 181.957C461.965 185.188 459.315 187.817 456.058 187.817L444.413 187.817 444.413 187.817Z" stroke="#000000" stroke-width="4"/></g></svg>