<svg width="200" height="200" xmlns="http://www.w3.org/2000/svg" xmlns:xlink="http://www.w3.org/1999/xlink" xml:space="preserve" overflow="hidden"><defs><clipPath id="clip0"><rect x="670" y="471" width="200" height="200"/></clipPath></defs><g clip-path="url(#clip0)" transform="translate(-670 -471)"><path d="M714.612 665.558C714.212 668.957 711.413 671.356 708.413 670.956 705.414 670.557 703.414 667.357 703.814 663.758 714.212 575.377 748.405 527.988 805.792 523.189 808.792 522.989 811.391 525.588 811.591 528.987 811.791 532.387 809.591 535.586 806.592 535.786 755.003 539.985 724.41 582.576 714.612 665.558Z"/><path d="M702.215 585.775C699.015 580.376 693.417 575.777 685.418 572.178 684.219 580.176 685.218 586.575 688.218 591.574 691.417 596.773 697.216 601.172 705.814 604.371 706.414 596.973 705.214 590.774 702.215 585.775ZM714.212 618.168C679.22 610.37 667.022 590.174 677.62 557.781 710.613 567.379 722.81 587.575 714.212 618.168ZM729.009 543.984C728.209 537.785 725.01 531.387 719.011 524.788 714.612 531.587 713.012 537.985 713.612 543.784 714.412 549.783 718.011 556.181 724.61 562.78 728.409 555.982 729.809 549.783 729.009 543.984ZM726.809 578.377C698.016 557.181 695.016 533.786 718.011 508.392 744.206 530.587 747.205 553.982 726.809 578.377ZM765.001 514.79C766.001 508.592 764.801 501.593 761.202 493.395 755.003 498.794 751.604 504.193 750.604 509.992 749.604 515.99 751.204 523.189 755.603 531.187 761.002 525.988 764.201 520.589 765.001 514.79ZM753.004 547.183C731.608 518.39 735.607 495.195 765.001 477.599 783.397 506.392 779.398 529.587 753.004 547.183ZM811.791 504.993C815.19 499.794 816.99 492.795 816.79 483.997 808.992 486.397 803.593 489.996 800.393 494.795 796.994 499.994 795.594 506.992 796.394 516.19 803.593 513.791 808.592 509.992 811.791 504.993ZM787.596 529.787C779.798 494.795 792.795 475.199 826.588 471 831.987 504.793 818.989 524.388 787.596 529.787ZM750.004 599.372C744.006 601.372 738.407 605.771 733.008 612.769 740.606 615.768 747.005 616.168 752.604 614.369 758.403 612.369 764.001 607.77 769 599.972 761.802 597.572 755.603 597.372 750.004 599.372ZM784.197 594.973C768.8 627.366 746.405 634.564 717.211 616.968 734.008 586.975 756.403 579.576 784.197 594.973ZM781.797 558.181C775.599 558.581 769 561.38 761.802 566.779 768.4 571.578 774.599 573.778 780.198 573.378 786.396 572.978 792.795 569.978 799.794 563.78 793.595 559.781 787.596 557.981 781.797 558.181ZM815.99 562.78C792.595 589.974 769.2 591.374 745.605 566.779 769.6 542.185 792.995 540.985 815.99 562.78Z"/><path d="M829.387 542.984C835.386 544.984 842.584 544.984 850.982 542.584 846.783 535.586 841.784 531.387 836.386 529.587 830.587 527.588 823.388 527.988 814.59 531.187 818.789 537.186 823.788 541.185 829.387 542.984ZM799.394 525.788C831.187 509.192 853.382 516.79 866.179 548.583 834.786 562.38 812.391 554.782 799.394 525.788Z"/></g></svg>