<svg width="200" height="200" xmlns="http://www.w3.org/2000/svg" xmlns:xlink="http://www.w3.org/1999/xlink" xml:space="preserve" overflow="hidden"><g transform="translate(-540 -260)"><path d="M710.833 295.417 569.167 295.417C561.25 295.417 554.583 302.083 554.583 310L554.583 410C554.583 417.917 561.25 424.583 569.167 424.583L710.833 424.583C718.75 424.583 725.417 417.917 725.417 410L725.417 310C725.417 302.083 718.75 295.417 710.833 295.417ZM569.167 307.917 710.833 307.917C712.083 307.917 712.917 308.75 712.917 310L712.917 315 640 360.833 567.083 315 567.083 310C567.083 308.75 567.917 307.917 569.167 307.917ZM710.833 412.083 569.167 412.083C567.917 412.083 567.083 411.25 567.083 410L567.083 329.583 636.667 373.333C637.5 374.167 638.75 374.167 640 374.167 641.25 374.167 642.5 373.75 643.333 373.333L712.917 329.583 712.917 410C712.917 411.25 712.083 412.083 710.833 412.083Z"/></g></svg>