<?xml version="1.0" standalone="no"?><!DOCTYPE svg PUBLIC "-//W3C//DTD SVG 1.1//EN" "http://www.w3.org/Graphics/SVG/1.1/DTD/svg11.dtd"><svg t="1743041560464" class="icon" viewBox="0 0 1027 1024" version="1.1" xmlns="http://www.w3.org/2000/svg" p-id="19021" xmlns:xlink="http://www.w3.org/1999/xlink" width="200.5859375" height="200"><path d="M1027.413333 754.346667c0-92.16-75.093333-163.84-163.84-163.84-44.373333 0-85.333333 17.066667-116.053333 47.786666-64.853333-64.853333-167.253333-64.853333-232.106667 0-64.853333-64.853333-167.253333-64.853333-232.106666 0-30.72-30.72-71.68-47.786667-116.053334-47.786666-92.16 0-163.84 75.093333-163.84 163.84v228.693333c0 20.48 17.066667 34.133333 34.133334 34.133333H989.866667c20.48 0 34.133333-17.066667 34.133333-34.133333v-228.693333h3.413333zM955.733333 945.493333H71.68V750.933333c-3.413333-51.2 37.546667-95.573333 88.746667-98.986666 37.546667 0 71.68 20.48 88.746666 54.613333 10.24 17.066667 30.72 23.893333 47.786667 13.653333 6.826667-3.413333 13.653333-10.24 13.653333-13.653333 23.893333-47.786667 78.506667-64.853333 126.293334-40.96 17.066667 10.24 34.133333 23.893333 40.96 40.96 10.24 17.066667 30.72 23.893333 47.786666 13.653333 6.826667-3.413333 13.653333-10.24 13.653334-13.653333 23.893333-47.786667 78.506667-64.853333 126.293333-40.96 17.066667 10.24 34.133333 23.893333 40.96 40.96 10.24 17.066667 30.72 23.893333 47.786667 13.653333 6.826667-3.413333 13.653333-10.24 13.653333-13.653333 20.48-47.786667 78.506667-68.266667 126.293333-47.786667 34.133333 17.066667 54.613333 51.2 54.613334 88.746667v6.826667l6.826666 191.146666zM515.413333 484.693333c95.573333 0 174.08-78.506667 174.08-174.08 0-160.426667-146.773333-286.72-150.186666-290.133333-13.653333-13.653333-34.133333-13.653333-47.786667 0-6.826667 6.826667-150.186667 133.12-150.186667 290.133333 0 95.573333 75.093333 174.08 174.08 174.08z m0-392.533333c37.546667 37.546667 102.4 122.88 102.4 215.04-3.413333 58.026667-51.2 102.4-109.226666 98.986667-54.613333-3.413333-95.573333-44.373333-98.986667-98.986667 0-88.746667 68.266667-174.08 105.813333-215.04z m-375.466666 310.613333c61.44 0 112.64-51.2 112.64-112.64 0-95.573333-85.333333-167.253333-88.746667-170.666666-13.653333-13.653333-34.133333-13.653333-47.786667 0-3.413333 3.413333-88.746667 78.506667-88.746666 170.666666 0 61.44 51.2 112.64 112.64 112.64z m0-204.8c23.893333 27.306667 37.546667 58.026667 40.96 95.573334 0 23.893333-17.066667 40.96-40.96 40.96s-40.96-17.066667-40.96-40.96c3.413333-37.546667 17.066667-71.68 40.96-95.573334z m747.52 204.8c61.44 0 112.64-51.2 112.64-112.64 0-95.573333-85.333333-167.253333-88.746667-170.666666-13.653333-13.653333-34.133333-13.653333-47.786667 0-3.413333 3.413333-88.746667 78.506667-88.746666 170.666666 3.413333 61.44 51.2 112.64 112.64 112.64z m0-204.8c23.893333 27.306667 37.546667 58.026667 40.96 95.573334 0 23.893333-17.066667 40.96-40.96 40.96s-40.96-17.066667-40.96-40.96c3.413333-37.546667 20.48-71.68 40.96-95.573334z" p-id="19022"></path></svg>