<svg width="200" height="200" xmlns="http://www.w3.org/2000/svg" xmlns:xlink="http://www.w3.org/1999/xlink" xml:space="preserve" overflow="hidden"><g transform="translate(-809 -379)"><path d="M989 550.84 979.4 550.84 979.4 444.44C979.4 441.16 976.68 438.44 973.4 438.44L927 438.44 927 401.24C927 399.32 926.12 397.56 924.52 396.44 923 395.32 921 395 919.16 395.56L843.16 419.56C840.68 420.36 839 422.68 839 425.32L839 550.92 829 550.92C825.72 550.92 823 553.64 823 556.92 823 560.2 825.72 562.92 829 562.92L989 562.92C992.28 562.92 995 560.2 995 556.92 995 553.64 992.28 550.84 989 550.84ZM927.4 450.44 967.4 450.44 967.4 550.44 927.4 550.44 927.4 450.44ZM851 429.56 915 409.32 915 550.36 851 550.36 851 429.56Z" fill="#231815"/><path d="M897 478.44 869 478.44C865.72 478.44 863 481.16 863 484.44 863 487.72 865.72 490.44 869 490.44L897 490.44C900.28 490.44 903 487.72 903 484.44 903 481.08 900.28 478.44 897 478.44ZM897 507.24 869 507.24C865.72 507.24 863 509.96 863 513.24 863 516.52 865.72 519.24 869 519.24L897 519.24C900.28 519.24 903 516.52 903 513.24 903 509.96 900.28 507.24 897 507.24Z" fill="#231815"/></g></svg>