<svg width="200" height="200" xmlns="http://www.w3.org/2000/svg" xmlns:xlink="http://www.w3.org/1999/xlink" xml:space="preserve" overflow="hidden"><defs><clipPath id="clip0"><rect x="19" y="431" width="200" height="200"/></clipPath></defs><g clip-path="url(#clip0)" transform="translate(-19 -431)"><path d="M213.718 629.461 24.379 629.461C21.4202 629.473 19.0119 627.084 19 624.126 19 624.111 19 624.097 19 624.083L19 474.203C19 471.233 21.4083 468.824 24.379 468.824L96.5861 468.824C99.5568 468.825 101.965 471.234 101.964 474.204 101.963 477.174 99.556 479.582 96.5861 479.582L29.7579 479.582 29.7579 618.704 208.339 618.704 208.339 474.203C208.34 471.233 210.748 468.825 213.719 468.825 216.689 468.826 219.097 471.233 219.097 474.203L219.097 624.083C219.109 627.041 216.72 629.45 213.761 629.461 213.747 629.462 213.732 629.462 213.718 629.461Z"/><path d="M155.518 551.746C153.826 551.743 152.233 550.947 151.215 549.595L117.112 502.475C115.371 500.063 115.916 496.696 118.328 494.955 120.74 493.215 124.107 493.759 125.848 496.171L155.518 537.202 185.382 496.063C186.843 493.477 190.124 492.564 192.711 494.025 195.297 495.486 196.21 498.767 194.749 501.354 194.538 501.728 194.282 502.076 193.988 502.389L159.864 549.53C158.855 550.924 157.238 551.748 155.518 551.746ZM151.086 602.932C149.826 602.939 148.606 602.497 147.643 601.685L46.9706 517.536C44.6434 515.69 44.2538 512.306 46.1003 509.979 47.9468 507.652 51.3302 507.262 53.6573 509.109 53.7247 509.162 53.7909 509.217 53.8557 509.274L154.55 593.422C156.831 595.325 157.138 598.717 155.236 600.999 154.214 602.223 152.702 602.932 151.107 602.932Z"/><path d="M51.9838 554.049C50.5613 554.057 49.1956 553.491 48.197 552.478 46.0937 550.38 46.0894 546.974 48.1874 544.871 48.1906 544.868 48.1938 544.865 48.197 544.861L66.4854 526.573C68.625 524.512 72.0302 524.576 74.0911 526.715 76.1017 528.803 76.097 532.108 74.0805 534.19L55.7921 552.478C54.7827 553.488 53.4118 554.054 51.9838 554.049ZM57.2552 604.245C54.2845 604.262 51.8623 601.868 51.8451 598.897 51.8367 597.458 52.4059 596.075 53.4253 595.058L95.4027 553.08C97.506 550.977 100.916 550.977 103.019 553.08 105.123 555.184 105.123 558.594 103.019 560.697L61.0634 602.653C60.0576 603.671 58.6863 604.244 57.2552 604.245ZM119.651 571.498C116.68 571.515 114.258 569.121 114.241 566.15 114.233 564.71 114.802 563.327 115.821 562.311L131.011 547.25C133.226 545.27 136.627 545.46 138.606 547.675 140.431 549.717 140.431 552.803 138.606 554.845L123.438 570.035C122.416 571 121.056 571.526 119.651 571.498ZM155.582 498.194C143.593 498.205 133.863 488.495 133.851 476.506 133.84 464.516 143.55 454.787 155.539 454.775 167.529 454.763 177.258 464.473 177.27 476.463 177.27 476.477 177.27 476.491 177.27 476.506 177.247 488.474 167.551 498.17 155.582 498.194ZM155.582 465.554C149.534 465.542 144.621 470.436 144.609 476.484 144.597 482.532 149.491 487.445 155.539 487.457 161.588 487.469 166.501 482.575 166.512 476.527 166.512 476.52 166.512 476.513 166.512 476.506 166.512 470.466 161.622 465.566 155.582 465.554Z"/><path d="M189.491 504.863C188.479 504.869 187.486 504.585 186.63 504.046 184.117 502.461 183.364 499.14 184.949 496.627 184.95 496.626 184.951 496.624 184.951 496.623 195.206 480.402 190.37 458.939 174.149 448.684 157.928 438.429 136.465 443.266 126.21 459.487 119.133 470.68 119.034 484.923 125.955 496.214 127.512 498.745 126.722 502.059 124.191 503.616 121.66 505.172 118.346 504.382 116.789 501.851 103.641 480.433 110.346 452.411 131.764 439.263 153.183 426.114 181.205 432.819 194.353 454.238 203.433 469.029 203.308 487.698 194.031 502.368 193.05 503.928 191.334 504.871 189.491 504.863Z"/></g></svg>