<?xml version="1.0" standalone="no"?><!DOCTYPE svg PUBLIC "-//W3C//DTD SVG 1.1//EN" "http://www.w3.org/Graphics/SVG/1.1/DTD/svg11.dtd"><svg t="1743045065029" class="icon" viewBox="0 0 1024 1024" version="1.1" xmlns="http://www.w3.org/2000/svg" p-id="2694" xmlns:xlink="http://www.w3.org/1999/xlink" width="200" height="200"><path d="M896 224H704a32 32 0 0 0 0 64v544c0 52.944 43.056 96 96 96s96-43.056 96-96V288a32 32 0 0 0 0-64z m-64 224h-64V288h64v160z m-32 416c-17.648 0-32-14.352-32-32V512h64v320c0 17.648-14.352 32-32 32zM480 464.72V128a32 32 0 0 0-32-32h-128a32 32 0 0 0-32 32v336.72A287.712 287.712 0 0 0 96 736c0 65.152 22.512 129.088 63.376 180.032 6.08 7.568 15.264 11.968 24.96 11.968h399.328a32 32 0 0 0 24.96-11.968A288.72 288.72 0 0 0 672 736a287.68 287.68 0 0 0-192-271.28zM567.696 864H200.304A221.056 221.056 0 0 1 160 736a223.744 223.744 0 0 1 168-216.624 32 32 0 0 0 24-30.992V160h64v328.384a32 32 0 0 0 24 30.992A223.744 223.744 0 0 1 608 736c0 46.368-13.888 90.336-40.304 128z" p-id="2695"></path><path d="M288 736m-32 0a32 32 0 1 0 64 0 32 32 0 1 0-64 0Z" p-id="2696"></path><path d="M480 768m-32 0a32 32 0 1 0 64 0 32 32 0 1 0-64 0Z" p-id="2697"></path><path d="M416 608m-32 0a32 32 0 1 0 64 0 32 32 0 1 0-64 0Z" p-id="2698"></path></svg>