<?xml version="1.0" standalone="no"?><!DOCTYPE svg PUBLIC "-//W3C//DTD SVG 1.1//EN" "http://www.w3.org/Graphics/SVG/1.1/DTD/svg11.dtd"><svg t="1743041401975" class="icon" viewBox="0 0 1310 1024" version="1.1" xmlns="http://www.w3.org/2000/svg" p-id="12818" xmlns:xlink="http://www.w3.org/1999/xlink" width="255.859375" height="200"><path d="M1294.917649 1022.381753H22.223144a20.381447 20.381447 0 0 1-22.141291-4.911192 25.006153 25.006153 0 0 1 8.471807-21.199979c26.84785-51.076398 57.420021-104.035419 85.372889-152.656221 27.952868-48.579875 56.478709-96.586778 84.104164-145.043873 80.830037-140.173608 160.555055-281.206674 240.730266-421.625841 50.748985-88.074045 101.62075-176.02531 151.878616-264.344915 10.763696-18.703457 18.089558-13.505778 25.988391 1.023165 15.633961 21.895731 19.276429 49.60304 9.863311 74.568267-0.654826 15.429328 0.327413 30.858657 2.987642 46.124279a198.65772 198.65772 0 0 0-13.464852 69.329662 278.423665 278.423665 0 0 0 50.994545 151.060083c11.050182 13.178365 16.902686 29.671786 16.411567 46.533545a83.694899 83.694899 0 0 0 33.600739 72.60379 40.108069 40.108069 0 0 1 13.055586 34.787611c0.12278 15.142842-0.941312 30.285685-3.233202 45.26482a299.296232 299.296232 0 0 0 2.332816 65.728121c7.980687 46.369839 18.949016 92.207632 32.782208 137.267819 11.377595 47.55671 16.534347 96.300292 15.183769 145.0848-0.900385 19.726622 4.993045 25.824685 25.538198 25.824685h454.03971a28.116575 28.116575 0 0 1 28.239354 14.488017c12.482613 20.749787 26.602291 40.026216 38.471005 61.103415 3.928954 7.121229 15.470255 18.703457-8.512733 18.989942z m-195.015253-243.717907c0 19.399209-11.254815 21.609245-25.333566 15.511181-22.959823-10.149797-81.443936-17.434732-82.4671-44.855554a102.807621 102.807621 0 0 1 32.454794-83.694899c15.224695-2.619302 30.367538-5.975284 45.592233-10.027017 11.091109-9.576825 26.602291 25.251713 27.911942 32.372941 2.332816 17.393805 2.332816 34.828537 3.519688 52.508829h-1.677991v38.184519z m-246.787403-121.470151c-18.989943 0-6.548256-82.426174-6.548256-103.585227a138.57747 138.57747 0 0 1 46.656325-94.294888 127.772848 127.772848 0 0 1 75.918845 70.803019 387.738616 387.738616 0 0 1-116.026914 127.077096z m-31.718115-203.11872a26.356731 26.356731 0 0 1-35.565216-3.765247 359.458335 359.458335 0 0 1-57.542801-90.652421 22.50963 22.50963 0 0 1-2.332816-17.884925 23.573722 23.573722 0 0 1 11.582228-14.20153 128.386747 128.386747 0 0 1 81.730422-26.111171 258.164998 258.164998 0 0 1 69.698001 89.670182 141.360479 141.360479 0 0 1-67.569818 62.945112z m-108.741979-209.339563a21.159053 21.159053 0 0 1-15.511181 0.409266 19.849401 19.849401 0 0 1-11.254815-10.108871c-11.213889-15.552108-28.525841-27.871015-41.581427-42.399958v-0.286486a24.67874 24.67874 0 0 1-10.027017-19.726622c0-7.694201 3.683394-14.979136 10.027017-19.726621a119.423821 119.423821 0 0 1 94.458595-24.228548c13.792264 14.20153 27.625456 46.574472 42.809224 60.20303a94.417668 94.417668 0 0 1-15.183769 26.84785c-14.651723 14.32431-33.314253 24.392254-53.736627 29.01696z" fill="#666666" p-id="12819"></path></svg>